<mxfile host="app.diagrams.net" agent="Mozilla/5.0 (Windows NT 10.0; Win64; x64) AppleWebKit/537.36 (KHTML, like Gecko) Chrome/136.0.0.0 Safari/537.36" version="27.0.9">
  <diagram name="Page-1" id="gmF0lqLM5jDYlkhlYrua">
    <mxGraphModel dx="2262" dy="785" grid="1" gridSize="10" guides="1" tooltips="1" connect="1" arrows="0" fold="1" page="1" pageScale="1" pageWidth="850" pageHeight="1100" math="1" shadow="0">
      <root>
        <mxCell id="0" />
        <mxCell id="1" parent="0" />
        <mxCell id="TQVPsAvAFbcCPKvridSk-33" value="PWM to Thrust" style="text;html=1;align=center;verticalAlign=middle;resizable=0;points=[];autosize=1;strokeColor=none;fillColor=none;" parent="1" vertex="1">
          <mxGeometry x="215" y="220" width="100" height="30" as="geometry" />
        </mxCell>
        <mxCell id="TQVPsAvAFbcCPKvridSk-66" style="edgeStyle=orthogonalEdgeStyle;rounded=0;orthogonalLoop=1;jettySize=auto;html=1;exitX=1;exitY=0.25;exitDx=0;exitDy=0;entryX=1;entryY=0.25;entryDx=0;entryDy=0;" parent="1" source="TQVPsAvAFbcCPKvridSk-34" target="TQVPsAvAFbcCPKvridSk-61" edge="1">
          <mxGeometry relative="1" as="geometry">
            <Array as="points">
              <mxPoint x="640" y="195" />
              <mxPoint x="640" y="450" />
            </Array>
          </mxGeometry>
        </mxCell>
        <mxCell id="TQVPsAvAFbcCPKvridSk-67" style="edgeStyle=orthogonalEdgeStyle;rounded=0;orthogonalLoop=1;jettySize=auto;html=1;exitX=1;exitY=0.5;exitDx=0;exitDy=0;entryX=1;entryY=0.5;entryDx=0;entryDy=0;" parent="1" source="TQVPsAvAFbcCPKvridSk-34" target="TQVPsAvAFbcCPKvridSk-61" edge="1">
          <mxGeometry relative="1" as="geometry">
            <Array as="points">
              <mxPoint x="630" y="245" />
              <mxPoint x="630" y="500" />
            </Array>
          </mxGeometry>
        </mxCell>
        <mxCell id="TQVPsAvAFbcCPKvridSk-68" style="edgeStyle=orthogonalEdgeStyle;rounded=0;orthogonalLoop=1;jettySize=auto;html=1;exitX=1;exitY=0.75;exitDx=0;exitDy=0;entryX=1;entryY=0.75;entryDx=0;entryDy=0;" parent="1" source="TQVPsAvAFbcCPKvridSk-34" target="TQVPsAvAFbcCPKvridSk-61" edge="1">
          <mxGeometry relative="1" as="geometry">
            <Array as="points">
              <mxPoint x="620" y="295" />
              <mxPoint x="620" y="550" />
            </Array>
          </mxGeometry>
        </mxCell>
        <mxCell id="MQUveA0Q0qGDdCK2UPOB-7" style="edgeStyle=orthogonalEdgeStyle;rounded=0;orthogonalLoop=1;jettySize=auto;html=1;exitX=0;exitY=0.5;exitDx=0;exitDy=0;entryX=1;entryY=0.5;entryDx=0;entryDy=0;" parent="1" source="TQVPsAvAFbcCPKvridSk-61" target="TQVPsAvAFbcCPKvridSk-62" edge="1">
          <mxGeometry relative="1" as="geometry" />
        </mxCell>
        <mxCell id="MQUveA0Q0qGDdCK2UPOB-71" style="edgeStyle=orthogonalEdgeStyle;rounded=0;orthogonalLoop=1;jettySize=auto;html=1;exitX=0;exitY=0.25;exitDx=0;exitDy=0;entryX=1;entryY=0.25;entryDx=0;entryDy=0;" parent="1" source="TQVPsAvAFbcCPKvridSk-61" target="TQVPsAvAFbcCPKvridSk-62" edge="1">
          <mxGeometry relative="1" as="geometry">
            <Array as="points">
              <mxPoint x="360" y="463" />
              <mxPoint x="255" y="463" />
            </Array>
          </mxGeometry>
        </mxCell>
        <mxCell id="MQUveA0Q0qGDdCK2UPOB-73" style="edgeStyle=orthogonalEdgeStyle;rounded=0;orthogonalLoop=1;jettySize=auto;html=1;exitX=0;exitY=0.75;exitDx=0;exitDy=0;entryX=1;entryY=0.75;entryDx=0;entryDy=0;" parent="1" source="TQVPsAvAFbcCPKvridSk-61" target="TQVPsAvAFbcCPKvridSk-62" edge="1">
          <mxGeometry relative="1" as="geometry">
            <Array as="points">
              <mxPoint x="360" y="538" />
              <mxPoint x="255" y="538" />
            </Array>
          </mxGeometry>
        </mxCell>
        <mxCell id="TQVPsAvAFbcCPKvridSk-61" value="" style="rounded=1;whiteSpace=wrap;html=1;fillColor=#ffe6cc;strokeColor=#d79b00;shadow=1;" parent="1" vertex="1">
          <mxGeometry x="360" y="400" width="120" height="200" as="geometry" />
        </mxCell>
        <mxCell id="TQVPsAvAFbcCPKvridSk-62" value="&lt;font style=&quot;font-size: 16px;&quot;&gt;&lt;b&gt;Extended&amp;nbsp;&lt;/b&gt;&lt;/font&gt;&lt;div&gt;&lt;font style=&quot;font-size: 16px;&quot;&gt;&lt;b&gt;Kalman&amp;nbsp;&lt;/b&gt;&lt;/font&gt;&lt;/div&gt;&lt;div&gt;&lt;font style=&quot;font-size: 16px;&quot;&gt;&lt;b&gt;Filter&lt;/b&gt;&lt;/font&gt;&lt;/div&gt;" style="rounded=1;whiteSpace=wrap;html=1;fillColor=#e1d5e7;strokeColor=#9673a6;shadow=1;" parent="1" vertex="1">
          <mxGeometry x="-85" y="425" width="160" height="150" as="geometry" />
        </mxCell>
        <mxCell id="MQUveA0Q0qGDdCK2UPOB-81" style="edgeStyle=orthogonalEdgeStyle;rounded=0;orthogonalLoop=1;jettySize=auto;html=1;exitX=0.5;exitY=0;exitDx=0;exitDy=0;entryX=0.5;entryY=1;entryDx=0;entryDy=0;" parent="1" source="TQVPsAvAFbcCPKvridSk-64" target="MQUveA0Q0qGDdCK2UPOB-74" edge="1">
          <mxGeometry relative="1" as="geometry" />
        </mxCell>
        <mxCell id="TQVPsAvAFbcCPKvridSk-64" value="&lt;b&gt;Waypoints&lt;/b&gt;" style="rounded=1;whiteSpace=wrap;html=1;fillColor=#f8cecc;strokeColor=#b85450;shadow=1;" parent="1" vertex="1">
          <mxGeometry x="-467.5" y="355" width="95" height="100" as="geometry" />
        </mxCell>
        <mxCell id="MQUveA0Q0qGDdCK2UPOB-1" value="Acceleration" style="text;html=1;align=left;verticalAlign=middle;resizable=0;points=[];autosize=1;strokeColor=none;fillColor=none;" parent="1" vertex="1">
          <mxGeometry x="495" y="425" width="90" height="30" as="geometry" />
        </mxCell>
        <mxCell id="MQUveA0Q0qGDdCK2UPOB-2" value="Angular Velocity" style="text;html=1;align=left;verticalAlign=middle;resizable=0;points=[];autosize=1;strokeColor=none;fillColor=none;" parent="1" vertex="1">
          <mxGeometry x="495" y="475" width="110" height="30" as="geometry" />
        </mxCell>
        <mxCell id="MQUveA0Q0qGDdCK2UPOB-3" value="Body Orientation" style="text;html=1;align=left;verticalAlign=middle;resizable=0;points=[];autosize=1;strokeColor=none;fillColor=none;" parent="1" vertex="1">
          <mxGeometry x="495" y="525" width="110" height="30" as="geometry" />
        </mxCell>
        <mxCell id="MQUveA0Q0qGDdCK2UPOB-11" value="Measured Acceleration" style="text;html=1;align=left;verticalAlign=middle;resizable=0;points=[];autosize=1;strokeColor=none;fillColor=none;" parent="1" vertex="1">
          <mxGeometry x="170" y="440" width="150" height="30" as="geometry" />
        </mxCell>
        <mxCell id="MQUveA0Q0qGDdCK2UPOB-12" value="Measured Angular Velocity" style="text;html=1;align=left;verticalAlign=middle;resizable=0;points=[];autosize=1;strokeColor=none;fillColor=none;" parent="1" vertex="1">
          <mxGeometry x="170" y="475" width="170" height="30" as="geometry" />
        </mxCell>
        <mxCell id="MQUveA0Q0qGDdCK2UPOB-21" value="" style="sketch=0;html=1;strokeColor=none;shadow=0;fillColor=light-dark(#000000,#000000);verticalAlign=top;labelPosition=center;verticalLabelPosition=bottom;shape=mxgraph.gcp2.speed" parent="1" vertex="1">
          <mxGeometry x="395" y="440" width="50" height="30" as="geometry" />
        </mxCell>
        <mxCell id="MQUveA0Q0qGDdCK2UPOB-25" value="Simulated IMU" style="text;html=1;align=center;verticalAlign=middle;resizable=0;points=[];autosize=1;strokeColor=none;fillColor=none;fontSize=16;fontStyle=1" parent="1" vertex="1">
          <mxGeometry x="355" y="370" width="130" height="30" as="geometry" />
        </mxCell>
        <mxCell id="MQUveA0Q0qGDdCK2UPOB-50" value="Acceleration" style="text;html=1;align=left;verticalAlign=middle;resizable=0;points=[];autosize=1;strokeColor=none;fillColor=none;" parent="1" vertex="1">
          <mxGeometry x="525" y="170" width="90" height="30" as="geometry" />
        </mxCell>
        <mxCell id="MQUveA0Q0qGDdCK2UPOB-51" value="Angular Velocity" style="text;html=1;align=left;verticalAlign=middle;resizable=0;points=[];autosize=1;strokeColor=none;fillColor=none;" parent="1" vertex="1">
          <mxGeometry x="524" y="220" width="110" height="30" as="geometry" />
        </mxCell>
        <mxCell id="MQUveA0Q0qGDdCK2UPOB-52" value="Body Orientation" style="text;html=1;align=left;verticalAlign=middle;resizable=0;points=[];autosize=1;strokeColor=none;fillColor=none;" parent="1" vertex="1">
          <mxGeometry x="524" y="270" width="110" height="30" as="geometry" />
        </mxCell>
        <mxCell id="MQUveA0Q0qGDdCK2UPOB-60" style="edgeStyle=orthogonalEdgeStyle;rounded=0;orthogonalLoop=1;jettySize=auto;html=1;exitX=0;exitY=0.5;exitDx=0;exitDy=0;entryX=0.5;entryY=1;entryDx=0;entryDy=0;entryPerimeter=0;" parent="1" source="TQVPsAvAFbcCPKvridSk-62" target="MQUveA0Q0qGDdCK2UPOB-59" edge="1">
          <mxGeometry relative="1" as="geometry" />
        </mxCell>
        <mxCell id="xhgIy1EtNFYnYhNwIbrn-1" value="" style="group" vertex="1" connectable="0" parent="1">
          <mxGeometry x="-230" y="115" width="450" height="235" as="geometry" />
        </mxCell>
        <mxCell id="ToZBvLZudIV_ecfTI63q-2" value="" style="rounded=1;whiteSpace=wrap;html=1;fillColor=#dae8fc;strokeColor=#6c8ebf;shadow=1;glass=0;" parent="xhgIy1EtNFYnYhNwIbrn-1" vertex="1">
          <mxGeometry y="30" width="450" height="205" as="geometry" />
        </mxCell>
        <mxCell id="TQVPsAvAFbcCPKvridSk-1" value="" style="rounded=1;whiteSpace=wrap;html=1;fillColor=none;strokeColor=light-dark(#999999,#000000);" parent="xhgIy1EtNFYnYhNwIbrn-1" vertex="1">
          <mxGeometry x="10" y="55" width="200" height="150" as="geometry" />
        </mxCell>
        <mxCell id="TQVPsAvAFbcCPKvridSk-15" value="Inverse Wrench" style="rounded=0;whiteSpace=wrap;html=1;fillColor=none;strokeColor=light-dark(#000000,#000000);" parent="xhgIy1EtNFYnYhNwIbrn-1" vertex="1">
          <mxGeometry x="230" y="42.5" width="80" height="30" as="geometry" />
        </mxCell>
        <mxCell id="TQVPsAvAFbcCPKvridSk-28" value="Thruster&amp;nbsp;&lt;div&gt;Forces&lt;/div&gt;" style="text;html=1;align=center;verticalAlign=middle;resizable=0;points=[];autosize=1;strokeColor=none;fillColor=none;" parent="xhgIy1EtNFYnYhNwIbrn-1" vertex="1">
          <mxGeometry x="280" y="92.5" width="70" height="40" as="geometry" />
        </mxCell>
        <mxCell id="TQVPsAvAFbcCPKvridSk-29" value="Thrust to PWM" style="rounded=0;whiteSpace=wrap;html=1;strokeColor=default;fillColor=none;" parent="xhgIy1EtNFYnYhNwIbrn-1" vertex="1">
          <mxGeometry x="340" y="115" width="90" height="30" as="geometry" />
        </mxCell>
        <mxCell id="TQVPsAvAFbcCPKvridSk-60" value="" style="endArrow=classic;html=1;rounded=0;fillColor=none;strokeColor=light-dark(#000000,#000000);entryX=0;entryY=0.5;entryDx=0;entryDy=0;" parent="xhgIy1EtNFYnYhNwIbrn-1" target="TQVPsAvAFbcCPKvridSk-29" edge="1">
          <mxGeometry relative="1" as="geometry">
            <mxPoint x="290" y="130" as="sourcePoint" />
            <mxPoint x="330" y="130" as="targetPoint" />
          </mxGeometry>
        </mxCell>
        <mxCell id="MQUveA0Q0qGDdCK2UPOB-26" value="Controller" style="text;html=1;align=center;verticalAlign=middle;resizable=0;points=[];autosize=1;strokeColor=none;fillColor=none;fontSize=16;fontStyle=1" parent="xhgIy1EtNFYnYhNwIbrn-1" vertex="1">
          <mxGeometry x="180" width="90" height="30" as="geometry" />
        </mxCell>
        <mxCell id="MQUveA0Q0qGDdCK2UPOB-31" value="" style="verticalLabelPosition=bottom;verticalAlign=top;html=1;shape=mxgraph.flowchart.or;fillColor=none;strokeColor=light-dark(#000000,#000000);" parent="xhgIy1EtNFYnYhNwIbrn-1" vertex="1">
          <mxGeometry x="250" y="110" width="40" height="40" as="geometry" />
        </mxCell>
        <mxCell id="MQUveA0Q0qGDdCK2UPOB-33" value="$$\textbf{P} \space\space \space\space\space\space\space\space\space\space\space \space \space\space\space&amp;nbsp;k_p \vec{x}_{error}$$" style="rounded=1;whiteSpace=wrap;html=1;fillColor=none;" parent="xhgIy1EtNFYnYhNwIbrn-1" vertex="1">
          <mxGeometry x="40" y="70" width="120" height="35" as="geometry" />
        </mxCell>
        <mxCell id="MQUveA0Q0qGDdCK2UPOB-34" value="$$\textbf{I} \space\space\space\space\space\space\space k_I \int \vec{x}_{error}dt$$" style="rounded=1;whiteSpace=wrap;html=1;fillColor=none;" parent="xhgIy1EtNFYnYhNwIbrn-1" vertex="1">
          <mxGeometry x="40" y="112.5" width="120" height="35" as="geometry" />
        </mxCell>
        <mxCell id="MQUveA0Q0qGDdCK2UPOB-35" value="$$\textbf{D} \space\space\space\space\space\space\space\space\space\space\space k_d \frac{d\vec{x}_{error}}{dt}$$" style="rounded=1;whiteSpace=wrap;html=1;fillColor=none;" parent="xhgIy1EtNFYnYhNwIbrn-1" vertex="1">
          <mxGeometry x="40" y="155" width="120" height="35" as="geometry" />
        </mxCell>
        <mxCell id="MQUveA0Q0qGDdCK2UPOB-36" style="edgeStyle=orthogonalEdgeStyle;rounded=0;orthogonalLoop=1;jettySize=auto;html=1;exitX=0.5;exitY=1;exitDx=0;exitDy=0;entryX=0.5;entryY=0;entryDx=0;entryDy=0;entryPerimeter=0;" parent="xhgIy1EtNFYnYhNwIbrn-1" source="TQVPsAvAFbcCPKvridSk-15" target="MQUveA0Q0qGDdCK2UPOB-31" edge="1">
          <mxGeometry relative="1" as="geometry" />
        </mxCell>
        <mxCell id="MQUveA0Q0qGDdCK2UPOB-40" value="" style="verticalLabelPosition=bottom;shadow=0;dashed=0;align=center;html=1;verticalAlign=top;shape=mxgraph.electrical.abstract.sum;aspect=fixed;fillColor=none;" parent="xhgIy1EtNFYnYhNwIbrn-1" vertex="1">
          <mxGeometry x="175" y="115" width="30" height="30" as="geometry" />
        </mxCell>
        <mxCell id="MQUveA0Q0qGDdCK2UPOB-41" style="edgeStyle=orthogonalEdgeStyle;rounded=0;orthogonalLoop=1;jettySize=auto;html=1;exitX=1;exitY=0.5;exitDx=0;exitDy=0;entryX=0.5;entryY=0;entryDx=0;entryDy=0;entryPerimeter=0;" parent="xhgIy1EtNFYnYhNwIbrn-1" source="MQUveA0Q0qGDdCK2UPOB-33" target="MQUveA0Q0qGDdCK2UPOB-40" edge="1">
          <mxGeometry relative="1" as="geometry" />
        </mxCell>
        <mxCell id="MQUveA0Q0qGDdCK2UPOB-42" style="edgeStyle=orthogonalEdgeStyle;rounded=0;orthogonalLoop=1;jettySize=auto;html=1;exitX=1;exitY=0.5;exitDx=0;exitDy=0;entryX=0;entryY=0.5;entryDx=0;entryDy=0;entryPerimeter=0;" parent="xhgIy1EtNFYnYhNwIbrn-1" source="MQUveA0Q0qGDdCK2UPOB-34" target="MQUveA0Q0qGDdCK2UPOB-40" edge="1">
          <mxGeometry relative="1" as="geometry" />
        </mxCell>
        <mxCell id="MQUveA0Q0qGDdCK2UPOB-43" style="edgeStyle=orthogonalEdgeStyle;rounded=0;orthogonalLoop=1;jettySize=auto;html=1;exitX=1;exitY=0.5;exitDx=0;exitDy=0;entryX=0.5;entryY=1;entryDx=0;entryDy=0;entryPerimeter=0;" parent="xhgIy1EtNFYnYhNwIbrn-1" source="MQUveA0Q0qGDdCK2UPOB-35" target="MQUveA0Q0qGDdCK2UPOB-40" edge="1">
          <mxGeometry relative="1" as="geometry" />
        </mxCell>
        <mxCell id="MQUveA0Q0qGDdCK2UPOB-44" style="edgeStyle=orthogonalEdgeStyle;rounded=0;orthogonalLoop=1;jettySize=auto;html=1;exitX=1;exitY=0.5;exitDx=0;exitDy=0;exitPerimeter=0;entryX=0;entryY=0.5;entryDx=0;entryDy=0;entryPerimeter=0;" parent="xhgIy1EtNFYnYhNwIbrn-1" source="MQUveA0Q0qGDdCK2UPOB-40" target="MQUveA0Q0qGDdCK2UPOB-31" edge="1">
          <mxGeometry relative="1" as="geometry" />
        </mxCell>
        <mxCell id="MQUveA0Q0qGDdCK2UPOB-48" value="6-DOF PID" style="text;html=1;align=center;verticalAlign=middle;resizable=0;points=[];autosize=1;strokeColor=none;fillColor=none;fontSize=13;fontStyle=0" parent="xhgIy1EtNFYnYhNwIbrn-1" vertex="1">
          <mxGeometry x="65" y="32.5" width="90" height="30" as="geometry" />
        </mxCell>
        <mxCell id="MQUveA0Q0qGDdCK2UPOB-72" value="Measured Magnetic Field" style="text;html=1;align=left;verticalAlign=middle;resizable=0;points=[];autosize=1;strokeColor=none;fillColor=none;" parent="1" vertex="1">
          <mxGeometry x="170" y="510" width="160" height="30" as="geometry" />
        </mxCell>
        <mxCell id="MQUveA0Q0qGDdCK2UPOB-74" value="&lt;b&gt;Waypoint&amp;nbsp;&lt;/b&gt;&lt;div&gt;&lt;b&gt;Follower&lt;/b&gt;&lt;/div&gt;" style="rounded=1;whiteSpace=wrap;html=1;fillColor=#f8cecc;strokeColor=#b85450;shadow=1;" parent="1" vertex="1">
          <mxGeometry x="-480" y="177.5" width="120" height="135" as="geometry" />
        </mxCell>
        <mxCell id="MQUveA0Q0qGDdCK2UPOB-75" style="edgeStyle=orthogonalEdgeStyle;rounded=0;orthogonalLoop=1;jettySize=auto;html=1;exitX=1;exitY=0.5;exitDx=0;exitDy=0;entryX=0;entryY=0.5;entryDx=0;entryDy=0;entryPerimeter=0;" parent="1" source="MQUveA0Q0qGDdCK2UPOB-74" target="MQUveA0Q0qGDdCK2UPOB-59" edge="1">
          <mxGeometry relative="1" as="geometry" />
        </mxCell>
        <mxCell id="MQUveA0Q0qGDdCK2UPOB-78" value="" style="shape=image;html=1;verticalAlign=top;verticalLabelPosition=bottom;labelBackgroundColor=#ffffff;imageAspect=0;aspect=fixed;image=https://cdn2.iconfinder.com/data/icons/freecns-cumulus/32/519779-90_Compass-128.png" parent="1" vertex="1">
          <mxGeometry x="402.5" y="530" width="35" height="35" as="geometry" />
        </mxCell>
        <mxCell id="MQUveA0Q0qGDdCK2UPOB-80" value="" style="shape=image;verticalLabelPosition=bottom;verticalAlign=top;imageAspect=0;image=https://static.thenounproject.com/png/51888-200.png;aspect=fixed;" parent="1" vertex="1">
          <mxGeometry x="400" y="480" width="40" height="40" as="geometry" />
        </mxCell>
        <mxCell id="xhgIy1EtNFYnYhNwIbrn-2" value="" style="group" vertex="1" connectable="0" parent="1">
          <mxGeometry x="320" y="115" width="200" height="230" as="geometry" />
        </mxCell>
        <mxCell id="TQVPsAvAFbcCPKvridSk-34" value="&lt;div&gt;6 DOF Dynamics&lt;/div&gt;&lt;div&gt;&lt;br&gt;&lt;/div&gt;&lt;div&gt;&lt;br&gt;&lt;/div&gt;&lt;div&gt;&lt;br&gt;&lt;/div&gt;&lt;div&gt;&lt;br&gt;&lt;/div&gt;&lt;div&gt;&lt;br&gt;&lt;/div&gt;&lt;div&gt;&lt;br&gt;&lt;/div&gt;&lt;div&gt;$$\vec{F} = m(\dot{\vec{v}} + \vec{w} \times \vec{v})$$&lt;/div&gt;&lt;div&gt;$$&amp;nbsp; \vec{M} =&amp;nbsp; I \dot{\vec{\omega}} + \vec{\omega} \times (I \vec{\omega})$$&lt;/div&gt;" style="rounded=1;whiteSpace=wrap;html=1;fillColor=#d5e8d4;strokeColor=#82b366;shadow=1;glass=0;" parent="xhgIy1EtNFYnYhNwIbrn-2" vertex="1">
          <mxGeometry y="30" width="200" height="200" as="geometry" />
        </mxCell>
        <mxCell id="TQVPsAvAFbcCPKvridSk-35" value="" style="shape=image;verticalLabelPosition=bottom;verticalAlign=top;imageAspect=0;image=https://upload.wikimedia.org/wikipedia/commons/thumb/5/51/Center_of_Gravity_symbol.svg/240px-Center_of_Gravity_symbol.svg.png;" parent="xhgIy1EtNFYnYhNwIbrn-2" vertex="1">
          <mxGeometry x="92.5" y="62.5" width="15" height="15" as="geometry" />
        </mxCell>
        <mxCell id="TQVPsAvAFbcCPKvridSk-50" value="" style="verticalLabelPosition=bottom;shadow=0;align=center;html=1;verticalAlign=top;shape=mxgraph.electrical.rot_mech.verticalLabelPosition=bottom;shadow=0;dashed=0;align=center;fillColor=strokeColor;html=1;verticalAlign=top;strokeWidth=1;shape=mxgraph.electrical.rot_mech.rotation;rotation=55;flipV=0;strokeColor=#808080;fontColor=#808080;" parent="xhgIy1EtNFYnYhNwIbrn-2" vertex="1">
          <mxGeometry x="70" y="75" width="10.75" height="12.5" as="geometry" />
        </mxCell>
        <mxCell id="TQVPsAvAFbcCPKvridSk-45" value="" style="endArrow=classic;html=1;rounded=0;exitX=0.865;exitY=0.691;exitDx=0;exitDy=0;exitPerimeter=0;entryX=0.8;entryY=0.325;entryDx=0;entryDy=0;entryPerimeter=0;" parent="xhgIy1EtNFYnYhNwIbrn-2" source="TQVPsAvAFbcCPKvridSk-35" target="TQVPsAvAFbcCPKvridSk-34" edge="1">
          <mxGeometry width="50" height="50" relative="1" as="geometry">
            <mxPoint x="177" y="85" as="sourcePoint" />
            <mxPoint x="120" y="107" as="targetPoint" />
          </mxGeometry>
        </mxCell>
        <mxCell id="TQVPsAvAFbcCPKvridSk-39" value="" style="endArrow=classic;html=1;rounded=0;" parent="xhgIy1EtNFYnYhNwIbrn-2" edge="1">
          <mxGeometry width="50" height="50" relative="1" as="geometry">
            <mxPoint x="99.67000000000002" y="77.5" as="sourcePoint" />
            <mxPoint x="99.67000000000002" y="140" as="targetPoint" />
          </mxGeometry>
        </mxCell>
        <mxCell id="TQVPsAvAFbcCPKvridSk-44" value="" style="endArrow=classic;html=1;rounded=0;exitX=0.276;exitY=0.71;exitDx=0;exitDy=0;exitPerimeter=0;entryX=0.2;entryY=0.325;entryDx=0;entryDy=0;entryPerimeter=0;" parent="xhgIy1EtNFYnYhNwIbrn-2" source="TQVPsAvAFbcCPKvridSk-35" target="TQVPsAvAFbcCPKvridSk-34" edge="1">
          <mxGeometry width="50" height="50" relative="1" as="geometry">
            <mxPoint x="30" y="155" as="sourcePoint" />
            <mxPoint x="80" y="105" as="targetPoint" />
          </mxGeometry>
        </mxCell>
        <mxCell id="TQVPsAvAFbcCPKvridSk-47" value="" style="verticalLabelPosition=bottom;shadow=0;dashed=0;align=center;html=1;verticalAlign=top;shape=mxgraph.electrical.rot_mech.verticalLabelPosition=bottom;shadow=0;dashed=0;align=center;fillColor=strokeColor;html=1;verticalAlign=top;strokeWidth=1;shape=mxgraph.electrical.rot_mech.rotation;rotation=90;flipV=1;strokeColor=#808080;" parent="xhgIy1EtNFYnYhNwIbrn-2" vertex="1">
          <mxGeometry x="96.75" y="105" width="6.5" height="15" as="geometry" />
        </mxCell>
        <mxCell id="TQVPsAvAFbcCPKvridSk-51" value="" style="verticalLabelPosition=bottom;shadow=0;align=center;html=1;verticalAlign=top;shape=mxgraph.electrical.rot_mech.verticalLabelPosition=bottom;shadow=0;dashed=0;align=center;fillColor=strokeColor;html=1;verticalAlign=top;strokeWidth=1;shape=mxgraph.electrical.rot_mech.rotation;rotation=-30;flipV=1;strokeColor=#808080;fontColor=#808080;flipH=1;" parent="xhgIy1EtNFYnYhNwIbrn-2" vertex="1">
          <mxGeometry x="120.00488654534138" y="72.50015877365274" width="10.75" height="12.5" as="geometry" />
        </mxCell>
        <mxCell id="TQVPsAvAFbcCPKvridSk-54" value="Plant" style="text;html=1;align=center;verticalAlign=middle;resizable=0;points=[];autosize=1;strokeColor=none;fillColor=none;fontSize=16;fontStyle=1" parent="xhgIy1EtNFYnYhNwIbrn-2" vertex="1">
          <mxGeometry x="70" width="60" height="30" as="geometry" />
        </mxCell>
        <mxCell id="MQUveA0Q0qGDdCK2UPOB-47" style="edgeStyle=orthogonalEdgeStyle;rounded=0;orthogonalLoop=1;jettySize=auto;html=1;entryX=0;entryY=0.5;entryDx=0;entryDy=0;" parent="1" edge="1">
          <mxGeometry relative="1" as="geometry">
            <mxPoint x="-260" y="245" as="sourcePoint" />
            <Array as="points">
              <mxPoint x="-210" y="245" />
              <mxPoint x="-210" y="288" />
            </Array>
            <mxPoint x="-190" y="287.5" as="targetPoint" />
          </mxGeometry>
        </mxCell>
        <mxCell id="MQUveA0Q0qGDdCK2UPOB-46" style="edgeStyle=orthogonalEdgeStyle;rounded=0;orthogonalLoop=1;jettySize=auto;html=1;entryX=0;entryY=0.5;entryDx=0;entryDy=0;" parent="1" edge="1">
          <mxGeometry relative="1" as="geometry">
            <mxPoint x="-260" y="245" as="sourcePoint" />
            <Array as="points">
              <mxPoint x="-210" y="245" />
              <mxPoint x="-210" y="202" />
            </Array>
            <mxPoint x="-190" y="202.5" as="targetPoint" />
          </mxGeometry>
        </mxCell>
        <mxCell id="MQUveA0Q0qGDdCK2UPOB-59" value="" style="verticalLabelPosition=bottom;verticalAlign=top;html=1;shape=mxgraph.flowchart.or;fillColor=none;strokeColor=light-dark(#000000,#000000);" parent="1" vertex="1">
          <mxGeometry x="-310" y="225" width="40" height="40" as="geometry" />
        </mxCell>
        <mxCell id="MQUveA0Q0qGDdCK2UPOB-68" value="" style="whiteSpace=wrap;html=1;" parent="1" vertex="1">
          <mxGeometry x="-295" y="259" width="10" height="1" as="geometry" />
        </mxCell>
        <mxCell id="MQUveA0Q0qGDdCK2UPOB-69" value="" style="whiteSpace=wrap;html=1;" parent="1" vertex="1">
          <mxGeometry x="-307.5" y="244.5" width="10" height="1" as="geometry" />
        </mxCell>
        <mxCell id="MQUveA0Q0qGDdCK2UPOB-70" value="" style="whiteSpace=wrap;html=1;rotation=90;" parent="1" vertex="1">
          <mxGeometry x="-307.5" y="244.5" width="10" height="1" as="geometry" />
        </mxCell>
        <mxCell id="MQUveA0Q0qGDdCK2UPOB-38" style="edgeStyle=orthogonalEdgeStyle;rounded=0;orthogonalLoop=1;jettySize=auto;html=1;entryX=0;entryY=0.5;entryDx=0;entryDy=0;" parent="1" edge="1">
          <mxGeometry relative="1" as="geometry">
            <mxPoint x="-270" y="245" as="sourcePoint" />
            <mxPoint x="-190" y="245" as="targetPoint" />
          </mxGeometry>
        </mxCell>
        <mxCell id="TQVPsAvAFbcCPKvridSk-31" value="" style="endArrow=classic;html=1;rounded=0;fontSize=12;startSize=8;endSize=8;curved=1;fillColor=none;strokeColor=light-dark(#000000,#000000);entryX=0;entryY=0.5;entryDx=0;entryDy=0;exitX=1;exitY=0.5;exitDx=0;exitDy=0;" parent="1" source="TQVPsAvAFbcCPKvridSk-29" edge="1">
          <mxGeometry relative="1" as="geometry">
            <mxPoint x="210" y="244.52" as="sourcePoint" />
            <mxPoint x="320" y="245" as="targetPoint" />
          </mxGeometry>
        </mxCell>
      </root>
    </mxGraphModel>
  </diagram>
</mxfile>
